<svg width="156" height="30" viewBox="0 0 156 30" fill="none" xmlns="http://www.w3.org/2000/svg">
<path d="M51.2 12.9C51.4 13.14 51.54 13.3333 51.62 13.48C51.7 13.6267 51.74 13.7667 51.74 13.9C51.74 14.06 51.6333 14.2467 51.42 14.46C51.22 14.6733 51.02 14.78 50.82 14.78C50.5533 14.78 50.34 14.74 50.18 14.66C50.02 14.58 49.8867 14.4533 49.78 14.28C49.5667 13.96 49.3067 13.6867 49 13.46C48.6933 13.22 48.2133 13.1 47.56 13.1C47 13.1 46.36 13.2267 45.64 13.48C44.9333 13.7333 44.4267 14.0467 44.12 14.42C43.8533 14.7533 43.62 15.26 43.42 15.94C43.2333 16.62 43.14 17.28 43.14 17.92C43.14 18.6933 43.3067 19.4067 43.64 20.06C43.9867 20.7 44.48 21.2133 45.12 21.6C45.7733 21.9867 46.5533 22.18 47.46 22.18C47.9533 22.18 48.46 22.0867 48.98 21.9C49.5133 21.7 49.9733 21.38 50.36 20.94H50.34C50.58 20.6867 50.88 20.56 51.24 20.56C51.4533 20.56 51.6533 20.6533 51.84 20.84C52.04 21.0267 52.14 21.2133 52.14 21.4C52.14 21.6 52.1067 21.78 52.04 21.94C51.9867 22.0867 51.88 22.2533 51.72 22.44C51.1733 23.0533 50.5267 23.4733 49.78 23.7C49.0333 23.9267 48.14 24.04 47.1 24.04C46.18 24.04 45.2467 23.82 44.3 23.38C43.3667 22.94 42.6467 22.4067 42.14 21.78C41.8733 21.3933 41.6133 20.84 41.36 20.12C41.12 19.3867 41 18.7933 41 18.34C41 17.18 41.1733 16.08 41.52 15.04C41.88 13.9867 42.4133 13.1467 43.12 12.52C43.5867 12.0933 44.26 11.7733 45.14 11.56C46.02 11.3467 46.8267 11.24 47.56 11.24C48.4533 11.24 49.1533 11.3667 49.66 11.62C50.18 11.86 50.6933 12.2867 51.2 12.9ZM61.8316 17.58C61.9382 17.7667 62.0249 18.04 62.0916 18.4C62.1582 18.7467 62.1916 19.06 62.1916 19.34C62.1916 19.86 62.0782 20.6 61.8516 21.56C60.9316 23.24 59.5716 24.08 57.7716 24.08C57.1049 24.08 56.4249 23.86 55.7316 23.42C55.0382 22.98 54.5582 22.4733 54.2916 21.9C53.9316 20.7533 53.7516 20.0267 53.7516 19.72C53.7516 19.1867 53.8649 18.62 54.0916 18.02C54.3316 17.42 54.6316 16.9 54.9916 16.46C55.2182 16.1533 55.6249 15.8933 56.2116 15.68C56.7982 15.4533 57.3316 15.34 57.8116 15.34C58.7449 15.34 59.5382 15.52 60.1916 15.88C60.8449 16.2267 61.3916 16.7933 61.8316 17.58ZM60.0916 20.8C60.1582 20.6267 60.1916 20.18 60.1916 19.46C60.1916 19.0733 60.1182 18.6933 59.9716 18.32C59.8382 17.9467 59.6382 17.6267 59.3716 17.36C59.3449 17.3333 59.2716 17.2933 59.1516 17.24C59.0316 17.1733 58.8649 17.1133 58.6516 17.06C58.4516 16.9933 58.2182 16.96 57.9516 16.96C57.2049 16.96 56.6582 17.26 56.3116 17.86C55.9649 18.46 55.7916 19.14 55.7916 19.9C55.7916 20.0333 55.8249 20.2867 55.8916 20.66C55.9716 21.0333 56.0382 21.2667 56.0916 21.36C56.1316 21.4533 56.2316 21.5867 56.3916 21.76C56.5649 21.92 56.7716 22.0667 57.0116 22.2C57.2649 22.32 57.5249 22.38 57.7916 22.38C58.3916 22.38 58.8716 22.24 59.2316 21.96C59.5916 21.6667 59.8782 21.28 60.0916 20.8ZM72.0259 17.58C72.1326 17.7667 72.2193 18.04 72.2859 18.4C72.3526 18.7467 72.3859 19.06 72.3859 19.34C72.3859 19.7 72.3459 20.1 72.2659 20.54C72.1859 20.98 72.1126 21.32 72.0459 21.56C71.1259 23.24 69.7659 24.08 67.9659 24.08C67.2993 24.08 66.6193 23.86 65.9259 23.42C65.2326 22.98 64.7526 22.4733 64.4859 21.9C64.1259 20.7667 63.9459 20.04 63.9459 19.72C63.9459 19.1867 64.0593 18.62 64.2859 18.02C64.5259 17.42 64.8259 16.9 65.1859 16.46C65.4259 16.1533 65.8393 15.8933 66.4259 15.68C67.0126 15.4533 67.5459 15.34 68.0259 15.34C68.9593 15.34 69.7459 15.52 70.3859 15.88C71.0393 16.2267 71.5859 16.7933 72.0259 17.58ZM70.2859 20.8C70.3526 20.6667 70.3859 20.22 70.3859 19.46C70.3859 19.0733 70.3126 18.6933 70.1659 18.32C70.0326 17.9467 69.8326 17.6267 69.5659 17.36C69.5393 17.3333 69.4659 17.2933 69.3459 17.24C69.2259 17.1733 69.0593 17.1133 68.8459 17.06C68.6459 16.9933 68.4126 16.96 68.1459 16.96C67.3993 16.96 66.8526 17.26 66.5059 17.86C66.1593 18.46 65.9859 19.14 65.9859 19.9C65.9859 20.02 66.0259 20.2667 66.1059 20.64C66.1859 21.0133 66.2459 21.2533 66.2859 21.36C66.3926 21.5467 66.6059 21.7667 66.9259 22.02C67.2593 22.26 67.6193 22.38 68.0059 22.38C68.6059 22.38 69.0793 22.24 69.4259 21.96C69.7859 21.6667 70.0726 21.28 70.2859 20.8ZM75.8422 24.08C75.5755 24.08 75.3489 24.0333 75.1622 23.94C74.9755 23.8467 74.8622 23.7467 74.8222 23.64C74.6755 23.1067 74.6022 22.4067 74.6022 21.54C74.6022 19.94 74.6289 18.64 74.6822 17.64C74.7355 16.4533 74.7622 15.3133 74.7622 14.22C74.7622 13.9 74.7222 13.4333 74.6422 12.82C74.6289 12.7133 74.6089 12.52 74.5822 12.24C74.5555 11.96 74.5422 11.7 74.5422 11.46C74.5422 11.1667 74.6422 10.9333 74.8422 10.76C75.0555 10.5867 75.3289 10.5 75.6622 10.5C75.9289 10.5 76.1422 10.5867 76.3022 10.76C76.4755 10.92 76.5622 11.14 76.5622 11.42C76.5622 11.8467 76.5755 12.4467 76.6022 13.22C76.6289 13.94 76.6422 14.48 76.6422 14.84C76.6422 15.24 76.6289 15.7733 76.6022 16.44C76.5755 16.84 76.5622 17.1333 76.5622 17.32C76.5622 17.9067 76.5689 18.3933 76.5822 18.78C77.0755 18.2867 77.7222 17.7067 78.5222 17.04C79.3222 16.3733 79.9422 15.9067 80.3822 15.64C80.8489 15.36 81.1555 15.22 81.3022 15.22C81.5822 15.22 81.8222 15.28 82.0222 15.4C82.2222 15.52 82.3222 15.6933 82.3222 15.92C82.3222 16.1467 82.2889 16.3267 82.2222 16.46C82.1555 16.5933 82.0355 16.7267 81.8622 16.86L79.2822 18.74C79.5755 18.8867 79.8222 19.0733 80.0222 19.3C80.2355 19.5267 80.4489 19.8067 80.6622 20.14C81.1155 20.8867 81.4755 21.4333 81.7422 21.78C82.0222 22.1267 82.2755 22.3 82.5022 22.3L83.0022 22.28C83.0955 22.28 83.1755 22.3333 83.2422 22.44C83.3222 22.5467 83.3622 22.7 83.3622 22.9C83.3622 23.2067 83.2089 23.4533 82.9022 23.64C82.6089 23.8267 82.2755 23.92 81.9022 23.92C81.3822 23.92 80.9222 23.72 80.5222 23.32C80.1222 22.9067 79.7422 22.3533 79.3822 21.66C78.8622 20.6733 78.3489 20.0867 77.8422 19.9L76.5622 20.94L76.6422 23.12C76.6422 23.4667 76.5489 23.7133 76.3622 23.86C76.1889 24.0067 76.0155 24.08 75.8422 24.08ZM85.6142 11.16C86.0809 11.2 86.4809 11.3267 86.8142 11.54C87.1609 11.74 87.3342 12.0467 87.3342 12.46C87.3342 12.7667 87.1942 13.0133 86.9142 13.2C86.6342 13.3733 86.2876 13.46 85.8742 13.46C85.4876 13.46 85.2209 13.36 85.0742 13.16C84.9276 12.96 84.8542 12.7533 84.8542 12.54C84.8542 12.1533 84.9009 11.8267 84.9942 11.56C85.0876 11.28 85.2942 11.1467 85.6142 11.16ZM85.2142 19.42V18.84C85.2142 18.1733 85.1809 17.5667 85.1142 17.02C85.0609 16.46 85.0276 16.1133 85.0142 15.98C85.0276 15.8333 85.1276 15.6933 85.3142 15.56C85.5009 15.4267 85.6676 15.36 85.8142 15.36C86.0676 15.36 86.3209 15.4133 86.5742 15.52C86.8409 15.6133 87.0076 15.7333 87.0742 15.88C87.1409 16.3733 87.1742 16.7533 87.1742 17.02C87.1742 17.6067 87.2009 18.5667 87.2542 19.9L87.2742 20.68L87.3142 21.44C87.3276 21.6533 87.3409 21.9067 87.3542 22.2C87.3676 22.4933 87.3742 22.8267 87.3742 23.2C87.3742 23.4533 87.2476 23.6667 86.9942 23.84C86.7542 24.0133 86.5009 24.1 86.2342 24.1C85.8476 24.1 85.5742 24.0133 85.4142 23.84C85.2676 23.6667 85.1942 23.3933 85.1942 23.02L85.2142 19.42ZM89.5523 16.96C89.4457 16.88 89.359 16.8 89.2923 16.72C89.2257 16.6267 89.1923 16.4667 89.1923 16.24C89.1923 15.9867 89.279 15.7933 89.4523 15.66C89.639 15.5133 89.8523 15.44 90.0923 15.44C90.559 15.44 90.959 15.56 91.2923 15.8C91.639 16.04 91.8923 16.3733 92.0523 16.8C92.3457 16.2533 92.719 15.88 93.1723 15.68C93.6257 15.4667 94.2523 15.36 95.0523 15.36C95.3723 15.36 95.699 15.46 96.0323 15.66C96.379 15.8467 96.6923 16.08 96.9723 16.36C97.199 16.6533 97.3923 17.02 97.5523 17.46C97.7123 17.8867 97.7923 18.2733 97.7923 18.62C97.7923 18.82 97.779 19.1467 97.7523 19.6C97.7257 20.08 97.7123 20.46 97.7123 20.74C97.7123 21.6733 97.8923 22.2467 98.2523 22.46C98.3057 22.4867 98.4057 22.52 98.5523 22.56C98.699 22.6 98.8057 22.64 98.8723 22.68C98.9523 22.72 98.9923 22.78 98.9923 22.86C99.0057 23.18 98.8857 23.4467 98.6323 23.66C98.3923 23.86 98.099 23.96 97.7523 23.96C97.2323 23.96 96.8257 23.82 96.5323 23.54C96.239 23.26 96.0323 22.8333 95.9123 22.26C95.8457 22.0467 95.8123 21.7333 95.8123 21.32C95.8123 21.0933 95.8257 20.7267 95.8523 20.22C95.8923 19.82 95.9123 19.3933 95.9123 18.94C95.9123 18.4733 95.779 18.0667 95.5123 17.72C95.2457 17.36 94.879 17.18 94.4123 17.18C94.1323 17.18 93.839 17.2667 93.5323 17.44C93.2257 17.6 93.0123 17.8 92.8923 18.04C92.6923 18.4533 92.559 18.8733 92.4923 19.3C92.3323 20.1267 92.2523 20.92 92.2523 21.68C92.2523 21.8667 92.2657 22.2267 92.2923 22.76C92.2923 22.8 92.2923 22.9 92.2923 23.06C92.2923 23.2067 92.2723 23.3467 92.2323 23.48C92.2057 23.6133 92.1523 23.7333 92.0723 23.84C92.019 23.8933 91.919 23.9467 91.7723 24C91.6257 24.0533 91.499 24.08 91.3923 24.08C91.2057 24.08 90.9723 24 90.6923 23.84C90.4123 23.68 90.2457 23.5 90.1923 23.3L90.1723 23.02C90.1723 22.9133 90.1857 22.7533 90.2123 22.54C90.3723 21.6067 90.4523 20.7933 90.4523 20.1C90.4523 19.7933 90.4457 19.56 90.4323 19.4L90.4123 18.48C90.4123 18.2 90.3323 17.9333 90.1723 17.68C90.0123 17.4133 89.8057 17.1733 89.5523 16.96ZM101.876 23.7C101.783 23.5 101.736 23.2667 101.736 23C101.736 22.7467 101.923 22.3667 102.296 21.86C101.656 21.6467 101.15 21.2667 100.776 20.72C100.416 20.1733 100.236 19.5333 100.236 18.8C100.236 18.32 100.35 17.8867 100.576 17.5C100.803 17.1 101.116 16.72 101.516 16.36C102.196 15.7467 103.136 15.44 104.336 15.44C104.816 15.44 105.41 15.5467 106.116 15.76C106.956 15.04 107.696 14.68 108.336 14.68C108.736 14.68 109.023 14.76 109.196 14.92C109.383 15.0667 109.476 15.3267 109.476 15.7C109.476 15.8467 109.416 15.9867 109.296 16.12C109.19 16.24 109.05 16.3 108.876 16.3L108.156 16.28C107.703 16.28 107.376 16.3667 107.176 16.54C107.43 16.8467 107.636 17.24 107.796 17.72C107.97 18.2 108.056 18.7467 108.056 19.36C108.056 20.1733 107.496 20.9333 106.376 21.64C105.683 22.0133 104.876 22.2067 103.956 22.22C103.85 22.3267 103.756 22.4267 103.676 22.52C103.61 22.6 103.576 22.6667 103.576 22.72C103.576 22.8667 103.703 22.98 103.956 23.06C104.21 23.14 104.596 23.2 105.116 23.24C105.503 23.2667 105.936 23.3533 106.416 23.5C106.91 23.6333 107.296 23.7867 107.576 23.96C107.923 24.2133 108.163 24.4867 108.296 24.78C108.443 25.0733 108.516 25.44 108.516 25.88C108.516 26.4533 108.25 26.9333 107.716 27.32C107.196 27.72 106.583 28.0133 105.876 28.2C105.17 28.3867 104.55 28.48 104.016 28.48C103.376 28.48 102.83 28.4 102.376 28.24C101.936 28.0933 101.516 27.8867 101.116 27.62C100.836 27.42 100.616 27.1667 100.456 26.86C100.296 26.5533 100.216 26.2333 100.216 25.9C100.216 25.6333 100.416 25.2733 100.816 24.82C101.23 24.3667 101.63 24.0533 102.016 23.88C101.976 23.84 101.93 23.78 101.876 23.7ZM103.896 20.58C104.523 20.58 105.05 20.4133 105.476 20.08C105.903 19.7333 106.116 19.26 106.116 18.66C106.116 18.18 105.976 17.8 105.696 17.52C105.416 17.2267 105.023 17.08 104.516 17.08C103.463 17.08 102.776 17.3133 102.456 17.78C102.376 17.8867 102.296 18.0933 102.216 18.4C102.136 18.6933 102.096 18.92 102.096 19.08C102.096 19.3067 102.176 19.54 102.336 19.78C102.51 20.0067 102.736 20.2 103.016 20.36C103.296 20.5067 103.59 20.58 103.896 20.58ZM102.096 26.04C102.096 26.2667 102.303 26.46 102.716 26.62C103.143 26.7933 103.596 26.88 104.076 26.88C104.61 26.88 105.156 26.78 105.716 26.58C106.29 26.3933 106.576 26.14 106.576 25.82C106.576 25.3533 106.163 25.0533 105.336 24.92C104.43 24.76 103.716 24.6133 103.196 24.48C103.143 24.6667 102.963 24.9067 102.656 25.2C102.456 25.4 102.31 25.5533 102.216 25.66C102.136 25.78 102.096 25.9067 102.096 26.04ZM120.443 19.48C119.923 19.48 119.483 19.4667 119.123 19.44C118.776 19.4 118.316 19.34 117.743 19.26L117.723 21.36C117.709 21.72 117.703 22.2333 117.703 22.9C117.703 23.2467 117.603 23.52 117.403 23.72C117.216 23.9067 117.003 24 116.763 24C116.323 24 115.996 23.9467 115.783 23.84C115.569 23.72 115.463 23.5133 115.463 23.22C115.463 22.8333 115.496 22.2867 115.563 21.58C115.709 20.06 115.783 18.5 115.783 16.9C115.783 15.4067 115.736 14 115.643 12.68C115.656 12.4933 115.749 12.28 115.923 12.04C116.109 11.8 116.343 11.6667 116.623 11.64C116.929 11.64 117.416 11.5867 118.083 11.48C118.776 11.3733 119.303 11.32 119.663 11.32C120.756 11.32 121.603 11.4267 122.203 11.64C122.816 11.8533 123.429 12.2067 124.043 12.7C124.709 13.74 125.043 14.4733 125.043 14.9C125.043 15.7933 124.863 16.5867 124.503 17.28C124.143 17.9733 123.616 18.5133 122.923 18.9C122.229 19.2867 121.403 19.48 120.443 19.48ZM119.983 13.02C119.556 13.02 119.183 13.0467 118.863 13.1C118.556 13.14 118.183 13.2133 117.743 13.32C117.796 14.5467 117.823 15.44 117.823 16C117.823 16.5733 117.803 17.0533 117.763 17.44C118.336 17.56 118.789 17.64 119.123 17.68C119.456 17.7067 119.829 17.72 120.243 17.72C121.229 17.72 121.923 17.4667 122.323 16.96C122.736 16.44 122.943 15.84 122.943 15.16C122.943 14.96 122.883 14.7133 122.763 14.42C122.643 14.1267 122.536 13.9333 122.443 13.84C122.083 13.52 121.729 13.3067 121.383 13.2C121.049 13.08 120.583 13.02 119.983 13.02ZM135.004 23.04C135.004 23.3333 134.844 23.58 134.524 23.78C134.217 23.98 133.93 24.08 133.664 24.08C133.157 24.08 132.75 24.02 132.444 23.9C132.15 23.7667 131.877 23.5267 131.624 23.18C131.277 23.4867 130.804 23.72 130.204 23.88C129.604 24.0267 129.05 24.1 128.544 24.1C127.717 24.1 127.037 23.88 126.504 23.44C125.97 22.9867 125.704 22.3267 125.704 21.46C125.704 21.0867 125.804 20.7467 126.004 20.44C126.204 20.12 126.477 19.84 126.824 19.6C127.21 19.3467 127.65 19.1533 128.144 19.02C128.637 18.8733 129.15 18.8 129.684 18.8C129.964 18.8 130.297 18.8533 130.684 18.96C131.07 19.0667 131.37 19.18 131.584 19.3V18.98C131.584 18.26 131.41 17.7667 131.064 17.5C130.717 17.22 130.157 17.08 129.384 17.08C129.157 17.08 128.93 17.1267 128.704 17.22C128.49 17.3133 128.244 17.44 127.964 17.6C127.59 17.8 127.237 17.9 126.904 17.9C126.784 17.9 126.67 17.82 126.564 17.66C126.457 17.4867 126.404 17.3333 126.404 17.2C126.404 16.8133 126.584 16.48 126.944 16.2C127.317 15.92 127.757 15.7133 128.264 15.58C128.77 15.4333 129.224 15.36 129.624 15.36C130.024 15.36 130.484 15.44 131.004 15.6C131.524 15.7467 131.95 15.9533 132.284 16.22C132.684 16.5667 132.99 16.9733 133.204 17.44C133.43 17.8933 133.544 18.3933 133.544 18.94C133.544 19.1133 133.53 19.3733 133.504 19.72C133.477 20.0933 133.464 20.4133 133.464 20.68C133.464 20.8 133.45 20.98 133.424 21.22C133.397 21.5133 133.384 21.7467 133.384 21.92C133.384 22.08 133.444 22.22 133.564 22.34C133.684 22.4467 133.824 22.5 133.984 22.5L134.544 22.48C134.69 22.48 134.804 22.5333 134.884 22.64C134.964 22.7467 135.004 22.88 135.004 23.04ZM128.564 22.52C129.137 22.52 129.617 22.46 130.004 22.34C130.39 22.22 130.857 22 131.404 21.68C131.457 21.4533 131.49 21.1533 131.504 20.78C130.77 20.4333 130.164 20.26 129.684 20.26C129.137 20.26 128.65 20.36 128.224 20.56C127.797 20.76 127.584 21.1133 127.584 21.62C127.584 21.8733 127.69 22.0867 127.904 22.26C128.117 22.4333 128.337 22.52 128.564 22.52ZM136.793 17.04C136.673 17.04 136.56 17.0533 136.453 17.08C136.347 17.0933 136.24 17.1 136.133 17.1C135.987 17.1 135.847 17.0333 135.713 16.9C135.593 16.7667 135.533 16.6467 135.533 16.54C135.533 16.1933 135.707 15.9267 136.053 15.74C136.4 15.54 136.753 15.44 137.113 15.44C137.42 15.44 137.733 15.5467 138.053 15.76C138.387 15.96 138.633 16.22 138.793 16.54C139.14 16.1267 139.567 15.8267 140.073 15.64C140.58 15.4533 141.107 15.36 141.653 15.36C142.267 15.36 142.833 15.5533 143.353 15.94C143.887 16.3267 144.307 16.82 144.613 17.42C144.92 18.0067 145.073 18.5933 145.073 19.18C145.073 19.7533 145.013 20.2667 144.893 20.72C144.773 21.16 144.56 21.6067 144.253 22.06C143.907 22.54 143.44 22.9333 142.853 23.24C142.28 23.5467 141.593 23.7 140.793 23.7C140.58 23.7 140.32 23.6467 140.013 23.54C139.707 23.42 139.453 23.2933 139.253 23.16C139.16 24.0667 139.113 24.8533 139.113 25.52C139.113 25.92 139.133 26.3 139.173 26.66C139.2 27.0867 139.213 27.3933 139.213 27.58C139.213 27.8733 139.113 28.0867 138.913 28.22C138.713 28.3667 138.493 28.44 138.253 28.44C137.773 28.44 137.453 28.3067 137.293 28.04C137.147 27.7867 137.073 27.42 137.073 26.94C137.127 25.7933 137.193 24.7333 137.273 23.76C137.353 22.56 137.393 20.7067 137.393 18.2C137.393 17.96 137.347 17.7067 137.253 17.44C137.16 17.1733 137.007 17.04 136.793 17.04ZM139.333 21.18C139.4 21.4333 139.587 21.6467 139.893 21.82C140.213 21.98 140.5 22.06 140.753 22.06C141.513 22.06 142.08 21.8533 142.453 21.44C142.733 21.1467 142.913 20.86 142.993 20.58C143.087 20.3 143.133 19.8533 143.133 19.24C143.133 18.76 143.04 18.36 142.853 18.04C142.667 17.7067 142.44 17.4667 142.173 17.32C141.907 17.16 141.653 17.08 141.413 17.08C140.867 17.08 140.42 17.2467 140.073 17.58C139.74 17.9 139.527 18.34 139.433 18.9C139.367 19.34 139.333 20.1 139.333 21.18ZM154.519 24.08C154.066 24.08 153.719 24.0133 153.479 23.88C153.239 23.7333 152.979 23.4667 152.699 23.08C152.353 23.3867 151.833 23.6333 151.139 23.82C150.459 24.0067 149.873 24.1 149.379 24.1C148.566 24.1 147.906 23.88 147.399 23.44C146.906 22.9867 146.659 22.3267 146.659 21.46C146.659 21.0867 146.759 20.7467 146.959 20.44C147.173 20.12 147.446 19.84 147.779 19.6C148.153 19.3467 148.593 19.1467 149.099 19C149.619 18.8533 150.093 18.78 150.519 18.78C151.239 18.78 151.879 18.8467 152.439 18.98V18.96C152.439 18.24 152.259 17.7467 151.899 17.48C151.553 17.2 150.993 17.06 150.219 17.06C149.726 17.06 149.299 17.28 148.939 17.72C148.806 17.8933 148.526 17.98 148.099 17.98C147.886 17.98 147.726 17.8933 147.619 17.72C147.526 17.5333 147.479 17.3467 147.479 17.16C147.479 16.7733 147.639 16.44 147.959 16.16C148.293 15.88 148.693 15.6733 149.159 15.54C149.626 15.3933 150.059 15.32 150.459 15.32C150.846 15.32 151.306 15.4 151.839 15.56C152.373 15.72 152.806 15.9333 153.139 16.2C153.539 16.5467 153.846 16.9533 154.059 17.42C154.286 17.8733 154.399 18.3733 154.399 18.92C154.399 19.0933 154.386 19.3533 154.359 19.7C154.333 20.1 154.319 20.4267 154.319 20.68C154.319 20.8 154.306 20.9533 154.279 21.14C154.253 21.38 154.239 21.58 154.239 21.74C154.239 21.9133 154.293 22.08 154.399 22.24C154.506 22.4 154.653 22.5333 154.839 22.64C155.013 22.7333 155.126 22.8333 155.179 22.94C155.233 23.0467 155.259 23.1667 155.259 23.3C155.259 23.4333 155.173 23.6 154.999 23.8C154.839 23.9867 154.679 24.08 154.519 24.08ZM150.519 20.26C149.999 20.26 149.539 20.36 149.139 20.56C148.739 20.76 148.539 21.1133 148.539 21.62C148.539 21.8733 148.626 22.0867 148.799 22.26C148.986 22.4333 149.186 22.52 149.399 22.52C149.973 22.52 150.453 22.46 150.839 22.34C151.226 22.22 151.693 22 152.239 21.68C152.306 21.4667 152.346 21.1667 152.359 20.78C152.359 20.6333 152.366 20.52 152.379 20.44C151.659 20.32 151.039 20.26 150.519 20.26Z" fill="white"/>
<path d="M29.5312 18.2813C29.5312 17.506 28.9003 16.875 28.125 16.875H26.25C25.4747 16.875 24.8438 17.506 24.8438 18.2813C24.8438 18.8916 25.237 19.4072 25.7812 19.6013V19.6875C25.7812 19.9463 25.5708 20.1563 25.3125 20.1563H24.375V17.2772C25.1813 17.0677 25.7812 16.3402 25.7812 15.4688C25.7812 14.5303 25.0861 13.7583 24.1852 13.6219C24.8175 11.9152 23.7023 9.00471 21.322 6.16502L22.1039 5.38314C22.2942 5.47361 22.4991 5.52377 22.7058 5.52377C23.0662 5.52377 23.4263 5.38689 23.7005 5.11268C24.2484 4.56424 24.2484 3.67221 23.7005 3.12377L21.7116 1.13486C21.1631 0.586426 20.2711 0.587363 19.7227 1.13486C19.2914 1.56658 19.2052 2.20877 19.4527 2.73096L18.6708 3.51283C15.3403 0.721894 11.9095 -0.331856 10.4423 1.1358C10.2591 1.31908 10.2591 1.61533 10.4423 1.79861L22.2375 13.5938H6.09375C5.05969 13.5938 4.21875 14.4347 4.21875 15.4688C4.21875 16.3402 4.81875 17.0677 5.625 17.2772V20.1563H4.6875C4.42922 20.1563 4.21875 19.9463 4.21875 19.6875V19.6013C4.76297 19.4072 5.15625 18.8916 5.15625 18.2813C5.15625 17.506 4.52531 16.875 3.75 16.875H1.875C1.09969 16.875 0.46875 17.506 0.46875 18.2813C0.46875 18.8916 0.862031 19.4072 1.40625 19.6013V20.1563C1.40625 21.7074 2.66766 22.9688 4.21875 22.9688H5.625V26.25C5.625 28.0589 7.09688 29.5313 8.90625 29.5313H21.0938C22.9031 29.5313 24.375 28.0589 24.375 26.25V22.9688H25.7812C27.3323 22.9688 28.5938 21.7074 28.5938 20.1563V19.6013C29.138 19.4072 29.5312 18.8916 29.5312 18.2813ZM20.3859 1.79861C20.5683 1.6158 20.8659 1.61533 21.0492 1.79861L23.0377 3.78752C23.2205 3.97033 23.2205 4.26752 23.0377 4.45033C22.8544 4.63361 22.5567 4.63314 22.3744 4.45033L20.3859 2.46143C20.2031 2.27861 20.2031 1.98143 20.3859 1.79861ZM20.0545 3.45611L21.3806 4.78221L20.7028 5.45955C20.4942 5.23221 20.2786 5.00627 20.0545 4.78221C19.8305 4.55814 19.6041 4.34252 19.3772 4.13393L20.0545 3.45611ZM19.3917 5.44455C21.9797 8.03252 24.0375 11.6925 23.3063 13.3364L11.4994 1.53002C13.1442 0.799238 16.8037 2.85658 19.3917 5.44455V5.44455ZM5.15625 15.4688C5.15625 14.9517 5.57672 14.5313 6.09375 14.5313H23.9062C24.4233 14.5313 24.8438 14.9517 24.8438 15.4688C24.8438 15.9858 24.4233 16.4063 23.9062 16.4063H6.09375C5.57672 16.4063 5.15625 15.9858 5.15625 15.4688ZM1.875 17.8125H3.75C4.00828 17.8125 4.21875 18.0225 4.21875 18.2813C4.21875 18.54 4.00828 18.75 3.75 18.75H1.875C1.61672 18.75 1.40625 18.54 1.40625 18.2813C1.40625 18.0225 1.61672 17.8125 1.875 17.8125ZM4.21875 22.0313C3.18469 22.0313 2.34375 21.1903 2.34375 20.1563V19.6875H3.28125C3.28125 20.4628 3.91219 21.0938 4.6875 21.0938H5.625V22.0313H4.21875ZM21.0938 28.5938H8.90625C7.61391 28.5938 6.5625 27.5424 6.5625 26.25V17.3438H23.4375V26.25C23.4375 27.5424 22.3861 28.5938 21.0938 28.5938ZM25.7812 22.0313H24.375V21.0938H25.3125C26.0878 21.0938 26.7188 20.4628 26.7188 19.6875H27.6562V20.1563C27.6562 21.1903 26.8153 22.0313 25.7812 22.0313ZM28.125 18.75H26.25C25.9917 18.75 25.7812 18.54 25.7812 18.2813C25.7812 18.0225 25.9917 17.8125 26.25 17.8125H28.125C28.3833 17.8125 28.5938 18.0225 28.5938 18.2813C28.5938 18.54 28.3833 18.75 28.125 18.75Z" fill="white"/>
<path d="M22.0312 26.25C22.0312 26.7671 21.6108 27.1875 21.0938 27.1875V28.125C22.1278 28.125 22.9688 27.2841 22.9688 26.25V19.6875H22.0312V26.25Z" fill="white"/>
<path d="M8.0775 9.67783C8.31 9.91033 8.4375 10.2188 8.4375 10.5469C8.4375 10.875 8.31 11.1835 8.0775 11.416L7.16859 12.3249L7.83141 12.9877L8.74031 12.0788C9.15 11.6695 9.375 11.1253 9.375 10.5469C9.375 9.96845 9.15 9.42423 8.74031 9.01501L8.32828 8.60298C8.09625 8.37095 7.96875 8.06252 7.96875 7.73439C7.96875 7.40627 8.09625 7.09783 8.32875 6.86533L9.23766 5.95642L8.57484 5.29361L7.66594 6.20252C7.25625 6.61173 7.03125 7.15595 7.03125 7.73439C7.03125 8.31283 7.25625 8.85705 7.66594 9.26626L8.0775 9.67783Z" fill="white"/>
<path d="M13.4564 5.95642L12.7936 5.29361L11.8847 6.20252C11.475 6.61173 11.25 7.15595 11.25 7.73439C11.25 8.31283 11.475 8.85705 11.8847 9.26626L12.2967 9.6783C12.5287 9.91033 12.6562 10.2188 12.6562 10.5469C12.6562 10.875 12.5288 11.1835 12.2963 11.416L11.3873 12.3249L12.0502 12.9877L12.9591 12.0788C13.3687 11.6695 13.5938 11.1253 13.5938 10.5469C13.5938 9.96845 13.3687 9.42423 12.9591 9.01501L12.547 8.60298C12.315 8.37095 12.1875 8.06252 12.1875 7.73439C12.1875 7.40627 12.315 7.09783 12.5475 6.86533L13.4564 5.95642Z" fill="white"/>
</svg>
